HIERARCHY
ROOT Hips
{
 OFFSET 0.000000 0.000000 0.000000
 CHANNELS 6 Xposition Yposition Zposition Yrotation Xrotation Zrotation
 JOINT Chest
 {
  OFFSET 0.000000 9.857222 0.000240
  CHANNELS 3 Yrotation Xrotation Zrotation
  JOINT Chest2
  {
   OFFSET 0.000000 10.876940 -0.000436
   CHANNELS 3 Yrotation Xrotation Zrotation
   JOINT Chest3
   {
    OFFSET 0.000000 9.827798 0.000000
    CHANNELS 3 Yrotation Xrotation Zrotation
    JOINT Chest4
    {
     OFFSET 0.000000 9.827798 0.000000
     CHANNELS 3 Yrotation Xrotation Zrotation
     JOINT Neck
     {
      OFFSET 0.000000 13.831992 0.000000
      CHANNELS 3 Yrotation Xrotation Zrotation
      JOINT Head
      {
       OFFSET 0.000000 9.147643 -0.001036
       CHANNELS 3 Yrotation Xrotation Zrotation
       End Site
       {
        OFFSET 0.000000 17.515799 -0.000541
       }
      }
     }
     JOINT RightCollar
     {
      OFFSET -3.001579 7.717577 0.000000
      CHANNELS 3 Yrotation Xrotation Zrotation
      JOINT RightShoulder
      {
       OFFSET -14.002642 0.000000 0.000000
       CHANNELS 3 Yrotation Xrotation Zrotation
       JOINT RightElbow
       {
        OFFSET -30.053852 0.000000 0.000000
        CHANNELS 3 Yrotation Xrotation Zrotation
        JOINT RightWrist
        {
         OFFSET -24.564923 0.000000 -0.000000
         CHANNELS 3 Yrotation Xrotation Zrotation
         End Site
         {
          OFFSET -18.334355 0.000000 0.000000
         }
        }
       }
      }
     }
     JOINT LeftCollar
     {
      OFFSET 3.001579 7.717577 0.000000
      CHANNELS 3 Yrotation Xrotation Zrotation
      JOINT LeftShoulder
      {
       OFFSET 14.002642 0.000000 0.000000
       CHANNELS 3 Yrotation Xrotation Zrotation
       JOINT LeftElbow
       {
        OFFSET 30.053852 0.000000 0.000000
        CHANNELS 3 Yrotation Xrotation Zrotation
        JOINT LeftWrist
        {
         OFFSET 24.564923 0.000000 -0.000000
         CHANNELS 3 Yrotation Xrotation Zrotation
         End Site
         {
          OFFSET 18.334355 0.000000 0.000000
         }
        }
       }
      }
     }
    }
   }
  }
 }
 JOINT RightHip
 {
  OFFSET -8.003235 -0.001175 -0.000120
  CHANNELS 3 Yrotation Xrotation Zrotation
  JOINT RightKnee
  {
   OFFSET 0.000000 -41.759727 0.000113
   CHANNELS 3 Yrotation Xrotation Zrotation
   JOINT RightAnkle
   {
    OFFSET 0.000000 -40.728748 0.000159
    CHANNELS 3 Yrotation Xrotation Zrotation
    JOINT RightToe
    {
     OFFSET 0.000000 -6.515296 14.732841
     CHANNELS 3 Yrotation Xrotation Zrotation
     End Site
     {
      OFFSET 0.000000 -1.502839 6.412115
     }
    }
   }
  }
 }
 JOINT LeftHip
 {
  OFFSET 8.003235 -0.001175 -0.000120
  CHANNELS 3 Yrotation Xrotation Zrotation
  JOINT LeftKnee
  {
   OFFSET 0.000000 -41.759727 0.000113
   CHANNELS 3 Yrotation Xrotation Zrotation
   JOINT LeftAnkle
   {
    OFFSET 0.000000 -40.728748 0.000159
    CHANNELS 3 Yrotation Xrotation Zrotation
    JOINT LeftToe
    {
     OFFSET 0.000000 -6.515296 14.732841
     CHANNELS 3 Yrotation Xrotation Zrotation
     End Site
     {
      OFFSET 0.000000 -1.502839 6.412115
     }
    }
   }
  }
 }
}
MOTION
Frames: 7
Frame Time: 0.016667
-2.726080 90.677916 16.711825 -29.488793 -18.464908 -0.649182 -1.025881 -2.523113 -1.262192 -0.331329 -1.166851 -0.487835 -0.331329 -1.166851 -0.487835 -0.249420 -0.874874 -0.366496 -2.636512 37.130749 1.010152 -4.768026 32.837941 2.010272 10.648123 32.114731 6.073490 91.291921 30.814748 40.797763 79.671571 63.572086 2.115866 -8.316543 17.604143 -55.666251 -23.846947 37.752720 -12.592655 -32.542119 13.499639 -8.094192 -101.897421 39.897619 0.663372 -8.707000 17.776288 31.044917 -9.616873 29.964543 -7.702962 4.037493 -5.674088 5.272660 1.183084 -6.093512 1.115358 -0.564123 0.120801 -0.511824 2.684998 17.543532 4.814832 -3.355665 6.172072 -3.882461 -0.630161 -4.093566 -0.381755 0.372447 -0.175804 0.073183
-2.720685 90.681450 16.661718 -29.174214 -18.245985 -0.639565 -0.990871 -2.750717 -1.374063 -0.330015 -1.273871 -0.525213 -0.330015 -1.273871 -0.525213 -0.248596 -0.955121 -0.394582 -2.641444 37.391832 1.042100 -4.777841 33.324132 2.058239 11.008041 32.392010 6.362507 94.208348 30.427956 43.701293 74.407600 63.580968 1.148003 -8.725713 18.192290 -55.961936 -24.439538 38.218665 -12.734109 -34.596894 15.417327 -8.426150 -97.953486 40.560887 0.392342 -8.376327 17.756050 31.342655 -10.033121 29.739634 -7.819602 4.053093 -5.707416 5.279826 1.213644 -6.049260 1.183786 -0.583461 0.106956 -0.518028 2.469024 17.261668 4.664378 -3.335201 6.186060 -3.757224 -0.642879 -4.043055 -0.398413 0.327560 -0.157797 0.052298
-2.711685 90.669632 16.607035 -28.871695 -17.832157 -0.656275 -0.914288 -3.042850 -1.481819 -0.333020 -1.407330 -0.582009 -0.333020 -1.407330 -0.582009 -0.251093 -1.055182 -0.437252 -2.630058 37.626618 1.119102 -4.762017 33.762935 2.186041 11.114904 32.637937 6.553343 97.466485 29.536566 46.315907 70.077874 63.455616 1.692782 -9.695226 18.536583 -56.421176 -25.106853 38.953665 -12.897255 -36.421105 16.958361 -8.413749 -94.433942 40.359475 -0.084536 -8.286364 17.774573 31.551173 -10.300660 29.315469 -7.817208 4.065034 -5.719053 5.287027 1.208196 -6.041265 1.240644 -0.622244 0.123454 -0.519787 2.371783 16.779831 4.606389 -3.323275 6.197748 -3.660805 -0.758511 -4.046350 -0.436358 0.331941 -0.085254 0.054213
-2.718667 90.647421 16.531812 -28.621192 -17.324625 -0.676774 -0.856855 -3.357559 -1.572278 -0.335426 -1.549474 -0.636748 -0.335426 -1.549474 -0.636748 -0.253169 -1.161758 -0.478383 -2.621457 37.845188 1.198595 -4.750985 34.171865 2.319229 11.183536 32.837128 6.670821 101.010977 28.302430 48.847434 64.366022 63.473665 1.654821 -10.568628 18.806624 -56.882574 -25.938340 39.740673 -13.229228 -38.487351 17.899640 -8.987021 -90.772871 40.304586 -1.142016 -8.427245 17.831312 31.519177 -10.445218 28.791407 -7.742649 4.088963 -5.715272 5.302204 1.230708 -6.070754 1.268565 -0.704452 0.171327 -0.523413 2.315516 16.205023 4.634451 -3.366124 6.196197 -3.675256 -0.899053 -4.059761 -0.476993 0.417208 0.000897 0.095892
-2.738849 90.628456 16.445541 -28.427896 -16.911843 -0.699616 -0.833397 -3.593865 -1.613307 -0.344384 -1.643185 -0.668712 -0.344384 -1.643185 -0.668712 -0.260069 -1.232014 -0.502426 -2.632047 38.034135 1.229232 -4.770584 34.524336 2.367947 11.367261 33.256275 6.716194 104.448722 26.924084 50.919033 57.709023 62.979208 0.955444 -11.049957 19.341681 -57.017456 -26.757065 40.576968 -13.631546 -40.880724 18.405767 -9.467425 -86.478575 40.404073 -2.250760 -8.562485 17.756837 31.084584 -10.428883 28.364773 -7.562177 4.109423 -5.701084 5.264302 1.179220 -6.115954 1.258798 -0.762591 0.230089 -0.507509 2.253613 15.716802 4.667561 -3.432474 6.210873 -3.667430 -0.957707 -4.070845 -0.543104 0.483687 0.074287 0.130877
-2.757304 90.623620 16.359946 -28.320580 -16.660252 -0.700080 -0.795409 -3.723578 -1.625352 -0.358367 -1.664454 -0.678585 -0.358367 -1.664454 -0.678585 -0.270606 -1.247945 -0.509879 -2.644964 38.176472 1.199404 -4.790590 34.787663 2.310762 11.740731 34.043088 6.725898 106.918449 25.320524 51.739691 51.460718 61.957036 0.737097 -11.223588 20.033864 -56.724567 -27.712348 41.629032 -14.247135 -43.208163 19.113344 -9.420088 -81.252303 40.431420 -2.258579 -8.655697 17.266595 29.991156 -10.217431 28.087512 -7.375140 4.069871 -5.673591 5.241975 1.121507 -6.103869 1.239544 -0.815855 0.233326 -0.492688 2.273204 15.389470 4.662814 -3.553776 6.236484 -3.603273 -0.922890 -4.040851 -0.602184 0.484858 0.094183 0.137991
-2.752980 90.632870 16.293230 -28.217286 -16.524458 -0.667155 -0.755598 -3.764243 -1.697611 -0.351765 -1.660357 -0.691183 -0.351765 -1.660357 -0.691183 -0.265684 -1.244872 -0.519307 -2.641867 38.299475 1.178160 -4.782904 35.014918 2.268439 12.464804 34.698651 7.115959 108.782223 23.678862 52.374528 44.714557 60.632434 0.022352 -11.258818 20.871398 -56.301303 -28.887824 42.822893 -14.974938 -45.774591 20.148664 -9.474710 -74.799468 39.544781 -0.872279 -8.960297 16.830268 28.669952 -10.081528 27.918758 -7.317775 4.076835 -5.656243 5.251812 1.102199 -6.066408 1.244563 -0.899924 0.209278 -0.502075 2.321983 15.193691 4.613170 -3.630290 6.233575 -3.523819 -0.935098 -3.941962 -0.637307 0.469106 0.063487 0.135360
